# xmcd CD database file
#
# Track frame offsets:
#	150
#	30002
#	46860
#	66897
#	85521
#	104510
#	122807
#	143622
#	155772
#	179214
#	203377
#	223956
#
# Disc length: 3256 seconds
#
# Revision: 0
# Processed by: cddbd v1.5.2PL0 Copyright (c) Steve Scherf et al.
# Submitted via: CDex 1.70beta2
#
DISCID=a30cb60c
DTITLE=Various Artist - 乾杯ジャズ
DYEAR=2013
DGENRE=Jazz
TTITLE0=Be My Monster Love
TTITLE1=Long Train Running
TTITLE2=Miracles
TTITLE3=Carnival
TTITLE4=Kiss Me
TTITLE5=Can’t Take My Eyes Off You
TTITLE6=I Don’t Want To Miss A Thing
TTITLE7=Lady Madonna
TTITLE8=White Poison
TTITLE9=September
TTITLE10=Unchained Melody
TTITLE11=All You Need Is Love
EXTD=YEAR: 2013
EXTT0=
EXTT1=
EXTT2=
EXTT3=
EXTT4=
EXTT5=
EXTT6=
EXTT7=
EXTT8=
EXTT9=
EXTT10=
EXTT11=
PLAYORDER=
